<svg width="26" height="26" viewBox="0 0 26 26" fill="none" xmlns="http://www.w3.org/2000/svg">
<path d="M19.5 14.0833H14.0833V19.5C14.0833 20.0958 13.5958 20.5833 13 20.5833C12.4042 20.5833 11.9167 20.0958 11.9167 19.5V14.0833H6.5C5.90416 14.0833 5.41666 13.5958 5.41666 13C5.41666 12.4042 5.90416 11.9167 6.5 11.9167H11.9167V6.5C11.9167 5.90416 12.4042 5.41666 13 5.41666C13.5958 5.41666 14.0833 5.90416 14.0833 6.5V11.9167H19.5C20.0958 11.9167 20.5833 12.4042 20.5833 13C20.5833 13.5958 20.0958 14.0833 19.5 14.0833Z" fill="#EDEDF1"/>
</svg>
