<svg width="24" height="27" viewBox="0 0 24 27" fill="none" xmlns="http://www.w3.org/2000/svg">
<g clip-path="url(#clip0_18_22)">
<path d="M21.4286 1.6875H2.57143C1.88944 1.6875 1.23539 1.95418 0.753154 2.42889C0.270918 2.90359 0 3.54742 0 4.21875L0 22.7813C0 23.4526 0.270918 24.0964 0.753154 24.5711C1.23539 25.0458 1.88944 25.3125 2.57143 25.3125H9.92411V17.2805H6.54911V13.5H9.92411V10.6186C9.92411 7.34115 11.9063 5.53078 14.9421 5.53078C16.3961 5.53078 17.9164 5.78602 17.9164 5.78602V9.00281H16.2413C14.5907 9.00281 14.0759 10.0111 14.0759 11.0452V13.5H17.7605L17.1713 17.2805H14.0759V25.3125H21.4286C22.1106 25.3125 22.7646 25.0458 23.2468 24.5711C23.7291 24.0964 24 23.4526 24 22.7813V4.21875C24 3.54742 23.7291 2.90359 23.2468 2.42889C22.7646 1.95418 22.1106 1.6875 21.4286 1.6875V1.6875Z" fill="white"/>
</g>
<defs>
<clipPath id="clip0_18_22">
<rect width="24" height="27" fill="white"/>
</clipPath>
</defs>
</svg>
