<svg width="24" height="27" viewBox="0 0 24 27" fill="none" xmlns="http://www.w3.org/2000/svg">
<g clip-path="url(#clip0_18_28)">
<path d="M12.0054 7.4355C8.59822 7.4355 5.85 10.1408 5.85 13.4947C5.85 16.8486 8.59822 19.5539 12.0054 19.5539C15.4125 19.5539 18.1607 16.8486 18.1607 13.4947C18.1607 10.1408 15.4125 7.4355 12.0054 7.4355ZM12.0054 17.4339C9.80357 17.4339 8.00357 15.6673 8.00357 13.4947C8.00357 11.322 9.79821 9.55542 12.0054 9.55542C14.2125 9.55542 16.0071 11.322 16.0071 13.4947C16.0071 15.6673 14.2071 17.4339 12.0054 17.4339V17.4339ZM19.8482 7.18765C19.8482 7.97339 19.2053 8.60093 18.4125 8.60093C17.6143 8.60093 16.9768 7.96812 16.9768 7.18765C16.9768 6.40718 17.6196 5.77436 18.4125 5.77436C19.2053 5.77436 19.8482 6.40718 19.8482 7.18765ZM23.925 8.62202C23.8339 6.72886 23.3946 5.0519 21.9857 3.67026C20.5821 2.28862 18.8786 1.8562 16.9553 1.76128C14.9732 1.65054 9.03214 1.65054 7.05 1.76128C5.13215 1.85093 3.42858 2.28335 2.01965 3.66499C0.610726 5.04663 0.176798 6.72358 0.0803695 8.61675C-0.0321304 10.5679 -0.0321304 16.4162 0.0803695 18.3673C0.171441 20.2605 0.610726 21.9375 2.01965 23.3191C3.42858 24.7007 5.12679 25.1332 7.05 25.2281C9.03214 25.3388 14.9732 25.3388 16.9553 25.2281C18.8786 25.1384 20.5821 24.706 21.9857 23.3191C23.3893 21.9375 23.8286 20.2605 23.925 18.3673C24.0375 16.4162 24.0375 10.5732 23.925 8.62202V8.62202ZM21.3643 20.4609C20.9464 21.4945 20.1375 22.2908 19.0821 22.7074C17.5018 23.3244 13.7518 23.182 12.0054 23.182C10.2589 23.182 6.50358 23.3191 4.92858 22.7074C3.87858 22.296 3.06965 21.4998 2.64644 20.4609C2.01965 18.9052 2.1643 15.2138 2.1643 13.4947C2.1643 11.7755 2.02501 8.07886 2.64644 6.52847C3.06429 5.49487 3.87322 4.69858 4.92858 4.28198C6.50893 3.66499 10.2589 3.80737 12.0054 3.80737C13.7518 3.80737 17.5071 3.67026 19.0821 4.28198C20.1321 4.69331 20.9411 5.4896 21.3643 6.52847C21.9911 8.08413 21.8464 11.7755 21.8464 13.4947C21.8464 15.2138 21.9911 18.9105 21.3643 20.4609Z" fill="white"/>
</g>
<defs>
<clipPath id="clip0_18_28">
<rect width="24" height="27" fill="white"/>
</clipPath>
</defs>
</svg>
