<svg width="24" height="27" viewBox="0 0 24 27" fill="none" xmlns="http://www.w3.org/2000/svg">
<path d="M22.2857 1.6875H1.70893C0.766071 1.6875 0 2.45215 0 3.39082V23.6092C0 24.5479 0.766071 25.3125 1.70893 25.3125H22.2857C23.2286 25.3125 24 24.5479 24 23.6092V3.39082C24 2.45215 23.2286 1.6875 22.2857 1.6875ZM7.25357 21.9375H3.69643V10.6629H7.25893V21.9375H7.25357ZM5.475 9.12305C4.33393 9.12305 3.4125 8.21074 3.4125 7.09277C3.4125 5.9748 4.33393 5.0625 5.475 5.0625C6.61071 5.0625 7.5375 5.9748 7.5375 7.09277C7.5375 8.21602 6.61607 9.12305 5.475 9.12305V9.12305ZM20.5875 21.9375H17.0304V16.4531C17.0304 15.1453 17.0036 13.4631 15.1821 13.4631C13.3286 13.4631 13.0446 14.8869 13.0446 16.3582V21.9375H9.4875V10.6629H12.9V12.2027H12.9482C13.425 11.3168 14.5875 10.3834 16.3179 10.3834C19.9179 10.3834 20.5875 12.7195 20.5875 15.757V21.9375V21.9375Z" fill="white"/>
</svg>
