<svg width="24" height="24" viewBox="0 0 24 24" fill="none" xmlns="http://www.w3.org/2000/svg">
<path d="M13.02 19.9301V21.9501C15.03 21.7501 16.86 20.9501 18.34 19.7401L16.92 18.3101C15.81 19.1701 14.48 19.7501 13.02 19.9301Z" fill="white"/>
<path d="M4.03 12C4.03 7.95005 7.06 4.59005 10.98 4.07005V2.05005C5.95 2.58005 2.03 6.84005 2.03 12C2.03 17.16 5.95 21.4201 10.98 21.9501V19.93C7.06 19.41 4.03 16.05 4.03 12Z" fill="white"/>
<path d="M19.95 10.9999H21.97C21.77 8.98993 20.97 7.15993 19.76 5.67993L18.33 7.10993C19.19 8.20993 19.77 9.53993 19.95 10.9999Z" fill="white"/>
<path d="M18.34 4.26005C16.86 3.05005 15.02 2.25005 13.02 2.05005V4.07005C14.48 4.25005 15.81 4.83005 16.92 5.69005L18.34 4.26005Z" fill="white"/>
<path d="M18.33 16.9L19.76 18.32C20.97 16.84 21.77 15.01 21.97 13H19.95C19.77 14.46 19.19 15.79 18.33 16.9Z" fill="white"/>
<path d="M16 11.1C16 8.61 14.1 7 12 7C9.9 7 8 8.61 8 11.1C8 12.76 9.33 14.73 12 17C14.67 14.73 16 12.76 16 11.1ZM12 12C11.41 12 10.93 11.52 10.93 10.93C10.93 10.34 11.41 9.86 12 9.86C12.59 9.86 13.07 10.34 13.07 10.93C13.07 11.52 12.59 12 12 12Z" fill="white"/>
</svg>
