<svg width="50" height="60" viewBox="0 0 50 60" fill="none" xmlns="http://www.w3.org/2000/svg">
<circle cx="25" cy="30" r="25" fill="#34CD99"/>
<path d="M24.4 44.28C22.4533 44.28 20.6933 43.9467 19.12 43.28C17.5733 42.6133 16.3467 41.6533 15.44 40.4C14.5333 39.1467 14.0667 37.6667 14.04 35.96H20.04C20.12 37.1067 20.52 38.0133 21.24 38.68C21.9867 39.3467 23 39.68 24.28 39.68C25.5867 39.68 26.6133 39.3733 27.36 38.76C28.1067 38.12 28.48 37.2933 28.48 36.28C28.48 35.4533 28.2267 34.7733 27.72 34.24C27.2133 33.7067 26.5733 33.2933 25.8 33C25.0533 32.68 24.0133 32.3333 22.68 31.96C20.8667 31.4267 19.3867 30.9067 18.24 30.4C17.12 29.8667 16.1467 29.08 15.32 28.04C14.52 26.9733 14.12 25.56 14.12 23.8C14.12 22.1467 14.5333 20.7067 15.36 19.48C16.1867 18.2533 17.3467 17.32 18.84 16.68C20.3333 16.0133 22.04 15.68 23.96 15.68C26.84 15.68 29.1733 16.3867 30.96 17.8C32.7733 19.1867 33.7733 21.1333 33.96 23.64H27.8C27.7467 22.68 27.3333 21.8933 26.56 21.28C25.8133 20.64 24.8133 20.32 23.56 20.32C22.4667 20.32 21.5867 20.6 20.92 21.16C20.28 21.72 19.96 22.5333 19.96 23.6C19.96 24.3467 20.2 24.9733 20.68 25.48C21.1867 25.96 21.8 26.36 22.52 26.68C23.2667 26.9733 24.3067 27.32 25.64 27.72C27.4533 28.2533 28.9333 28.7867 30.08 29.32C31.2267 29.8533 32.2133 30.6533 33.04 31.72C33.8667 32.7867 34.28 34.1867 34.28 35.92C34.28 37.4133 33.8933 38.8 33.12 40.08C32.3467 41.36 31.2133 42.3867 29.72 43.16C28.2267 43.9067 26.4533 44.28 24.4 44.28Z" fill="#F5F5F5"/>
</svg>
