<svg width="48" height="42" viewBox="0 0 48 42" fill="none" xmlns="http://www.w3.org/2000/svg">
<path d="M45 10.78V8C45 6.35 43.65 5 42 5H38C37.23 5 36.53 5.3 36 5.78C35.47 5.3 34.77 5 34 5H30C28.35 5 27 6.35 27 8V10.78C26.39 11.33 26 12.12 26 13V19H28V17H44V19H46V13C46 12.12 45.61 11.33 45 10.78ZM38 7H42C42.55 7 43 7.45 43 8V10H37V8C37 7.45 37.45 7 38 7ZM29 8C29 7.45 29.45 7 30 7H34C34.55 7 35 7.45 35 8V10H29V8ZM28 15V13C28 12.45 28.45 12 29 12H43C43.55 12 44 12.45 44 13V15H28Z" fill="#48C4A0"/>
<path d="M34 25.5C34 23.57 29.52 22 24 22C18.48 22 14 23.57 14 25.5C14 27.31 17.95 28.81 23 28.98V33H21.35C20.53 33 19.8 33.5 19.49 34.26L18 38H20L21.2 35H26.8L28 38H30L28.5 34.26C28.2 33.5 27.46 33 26.65 33H25V28.98C30.05 28.81 34 27.31 34 25.5ZM24 24C28.05 24 30.74 24.86 31.72 25.5C30.74 26.14 28.05 27 24 27C19.95 27 17.26 26.14 16.28 25.5C17.26 24.86 19.95 24 24 24Z" fill="#48C4A0"/>
<path d="M20 9V7C20 5.35 18.65 4 17 4H7C5.35 4 4 5.35 4 7V9C2.35 9 1 10.35 1 12V17C1 18.65 2.35 20 4 20V21C4 21.55 4.45 22 5 22C5.55 22 6 21.55 6 21V20H18V21C18 21.55 18.45 22 19 22C19.55 22 20 21.55 20 21V20C21.65 20 23 18.65 23 17V12C23 10.35 21.65 9 20 9ZM6 7C6 6.45 6.45 6 7 6H17C17.55 6 18 6.45 18 7V9.78C17.39 10.33 17 11.12 17 12V14H7V12C7 11.12 6.61 10.33 6 9.78V7ZM21 17C21 17.55 20.55 18 20 18H4C3.45 18 3 17.55 3 17V12C3 11.45 3.45 11 4 11C4.55 11 5 11.45 5 12V16H19V12C19 11.45 19.45 11 20 11C20.55 11 21 11.45 21 12V17Z" fill="#48C4A0"/>
</svg>
